# xmcd
#
# Track frame offsets:
# 150
# 24255
# 59379
# 84877
# 110052
# 128525
# 158095
# 180461
# 204737
# 226239
# 254994
# 280596
# 299850
# 321185
#
# Disc length: 4635 seconds
#
# Revision: 0
# Processed by: cddbd v1.5.2PL0 Copyright (c) Steve Scherf et al.
# Submitted via: Audion 3.0.2 (http://www.panic.com/audion/)
#
DISCID=c712190e
DTITLE=dj kikin - remix dj kikin
DYEAR=1900
DGENRE=
TTITLE0=dj kikin
TTITLE1=dj kikin
TTITLE2=dj kikin
TTITLE3=dj kikin
TTITLE4=dj kikin
TTITLE5=dj kikin
TTITLE6=dj kikin
TTITLE7=dj kikin
TTITLE8=dj kikin
TTITLE9=dj kikin
TTITLE10=dj kikin
TTITLE11=dj kikin
TTITLE12=dj kikin
TTITLE13=dj kikin
EXTD=
EXTT0=
EXTT1=
EXTT2=
EXTT3=
EXTT4=
EXTT5=
EXTT6=
EXTT7=
EXTT8=
EXTT9=
EXTT10=
EXTT11=
EXTT12=
EXTT13=
PLAYORDER=
